<?xml version="1.0" encoding="utf-8"?>
<!-- Generator: Adobe Illustrator 22.0.0, SVG Export Plug-In . SVG Version: 6.00 Build 0)  -->
<svg version="1.1" xmlns="http://www.w3.org/2000/svg" xmlns:xlink="http://www.w3.org/1999/xlink" x="0px" y="0px"
	 viewBox="0 0 3348 3042" style="enable-background:new 0 0 3348 3042;" xml:space="preserve">
<style type="text/css">
	.st0{display:none;}
	.st1{display:inline;}
	.st2{display:none;clip-path:url(#SVGID_2_);}
	.st3{display:inline;fill:#222222;stroke:#000000;stroke-miterlimit:10;}
	.st4{fill:#222222;stroke:#000000;stroke-miterlimit:10;}
	.st5{clip-path:url(#SVGID_2_);}
	.st6{fill:#EAEAEA;stroke:#0D0B1E;stroke-width:30;stroke-miterlimit:10;}
	.st7{fill:#EAEAEA;}
	.st8{fill:#0D0B1E;}
</style>
<g id="Capa_2" class="st0">
	<g id="Layer_4" class="st1">
	</g>
	<g id="Layer_3" class="st1">
	</g>
</g>
<g id="Layer_7">
	<g>
		<defs>
			<rect id="SVGID_1_" x="225" y="420" width="2211" height="2380"/>
		</defs>
		<clipPath id="SVGID_2_">
			<use xlink:href="#SVGID_1_"  style="overflow:visible;"/>
		</clipPath>
		<g class="st2">
			<path class="st3" d="M1113.3,2166l-8.4-15.9c14-7.3,35.8-20.3,40.7-26.3c5.6-6.7,14.8-32.9,19.3-47.9l17.2,5.2
				c-2.1,7-13.2,42.7-22.7,54.1C1150.5,2146.2,1119.4,2162.8,1113.3,2166z"/>
			<path class="st3" d="M1569.9,2214.6c-3.7-3-36.3-29.4-44.6-42.8c-4.2-6.8-8.3-24.5-9.5-29.8l17.6-3.9c2.1,9.4,5.5,21.4,7.2,24.2
				c5.1,8.1,27.6,27.8,40.6,38.2L1569.9,2214.6z"/>
			<path class="st3" d="M1319.3,2264.8c-25,0-51.3-2.1-78.7-6.3c-73.8-11.3-95.9-122.5-96.8-127.2l17.7-3.4c0,0,0,0,0,0l0,0
				c0.3,1.3,20.7,103.4,81.9,112.8c111,17,181.8-5.2,221.6-26.9c42.9-23.4,60.1-51.1,60.3-51.4l15.4,9.3
				c-0.8,1.3-19.2,31.5-65.9,57.2c-27.1,14.9-58.2,25.4-92.6,31C1362.3,2263.1,1341.2,2264.8,1319.3,2264.8z"/>
			<path class="st3" d="M1351.4,2059.3c-1.5,0-2.9-0.1-4.2-0.4c-16.5-3.5-39.4-35.9-46.1-45.8l14.9-10.1
				c11.5,17,28.6,36.9,34.9,38.2c5.5,1.2,26.9-8.1,45.9-19.8l9.5,15.3C1397.3,2042.3,1368.5,2059.3,1351.4,2059.3z"/>
			<path class="st3" d="M792.9,2368c0,0,230.1,128,380.8,145.4c64.8,7.5,416.6-11.5,527.9-49.8c146.4-50.3,215.4-95.6,215.4-95.6
				l184.3,208c0,0-530.3,183.5-714.8,184c-200.6,0.5-777.9-196-777.9-196L792.9,2368z"/>
			<path class="st3" d="M660.6,1366.1c-1.8,1.8-23.4-28-67.5-48c-15.6-7.1-38.9-11.2-85.5-19.5c-43.5-7.7-61.3-8.4-79.5,0
				c-12.8,5.9-21.9,14.4-24,16.5c-4.4,4.3-12.5,13-24,39c-8.4,19-14.4,32.4-18,52.5c-1.2,6.7-5.4,31.8,0,64.5
				c3.3,20.3,5.5,33.6,15,48c14.6,22.2,36.2,31.3,51,37.5c10.2,4.3,30.3,7.4,70.5,13.5c0,0,19,2.9,75,4.5c5.2,0.1,14.3,0.3,24-4.5
				c11.9-5.9,18-15.9,21-21c19.2-32.5,5.6-71.9,3-79.5c-2.6-7.4-5.8-16.9-13.5-27c-6.1-8.1-8.8-8.3-13.5-16.5
				c-2.4-4.2-5.1-10.2-10.5-15c-1.3-1.2-3.2-2.8-6-4.3c-4.7-2.5-7.2-2-7.5-3.2c-0.6-2.6,11.1-11,22.5-9c6.8,1.2,11.2,5.8,16.5,12
				c18,20.8,27,34.5,27,34.5c12.7,19.4,19.1,29.1,25.5,42c8.4,16.7,13,29.9,15,36c3.3,10,6.2,19,7.5,31.5c1.1,11.3,0.5,20.7,0,24
				c-4,29.2-54.2,61.4-105,64.5c-19,1.2-41.2-4.7-85.5-16.5c-32.5-8.6-44.1-14.4-52.5-19.5c-17.6-10.6-25.7-21-46.5-45
				c-60.6-70.2-66.6-69.5-76.5-93c-13.1-31-13.6-57.9-13.5-66c0.2-27.3,7.3-47.1,13.5-64.5c5.6-15.6,14.4-39.6,34.5-61.5
				c11.3-12.3,21.1-18.4,25.5-21c0,0,11.5-6.7,25.5-10.5c16.4-4.5,90-15.3,168,33C631.6,1311.5,662.9,1363.9,660.6,1366.1z"/>
			<path class="st3" d="M880,1545.3c39.3,6,60-27.9,55-66.6c-2.8-22-1-16-6-43.3c-0.5-3-3.8-11.3-12.7-28.7
				c-13.8-27.1-14.4-25-23.7-29.5c-9.1-4.4-7.5-3.2-12.5-5c-8.2-2.9-7.7-1.7-13.5-3c-5.8-1.3-13.6,4-17.8,12.8
				c-14.2,29.5-4.1,30.6-12.6,37.4c-7.9,6.3-40.8-13.3-52.5-42c-4.6-11.4-4.6-20.8-4.5-24c0.2-4.8,1-22.7,15-36
				c2.9-2.7,8.8-8.2,18-10.5c9.7-2.4,17.5,0.2,30,4.5c18.2,6.3,30.5,14.7,33,16.5c10.2,7.1,18.6,15.1,28.5,27
				c17.4,20.7,23.4,34,42,64.5c24.1,39.6,23.2,32.5,31.5,49.5c12.2,24.8,25,50.9,18,81c-1.6,6.9-6.7,27.4-25.5,42
				c-21.5,16.7-46.5,14.5-54,13.5c-6.8-0.9-12-2.6-57-31.5c-36.7-23.6-46-30.6-55.5-39c-8.4-7.4-13.1-12.4-27-27
				c-65.2-68.7-70.1-73.8-78-87c-16.7-28.1-22.7-52.7-24-58.5c-6-26.4-15.1-65.7,6-96c15.8-22.8,41.4-30,73.5-39
				c16.4-4.6,37.9-10.6,66-7.5c34.9,3.9,54.6,24.3,72.2,36.1c39.8,26.8,73,59.3,68.8,64.4c-3.6,4.3-28.7-17.6-87-40.5
				c-21-8.2-36.8-12.9-55.5-15c-14.6-1.6-25.9,2.1-47.3,11.3c-11.7,5-21.5,10.9-30,25.3c-10.4,17.7-11.7,37.6-13.8,59.8
				c-1.1,11-1.8,22.6-1.7,30.5c0.2,11.8,2.5,23.8,4.2,33.3c3.8,21.6,21.3,47.1,32,59.7c9.5,11.2,9,17.4,36,33.3
				c23.2,13.7,30.8,13.5,45,18.3C849.5,1538.7,865.3,1542.1,880,1545.3"/>
			<path class="st3" d="M1188,1347c-3.2-26.2-27.5-43.1-45-55c-35-23.6-66.8-45.1-108-36c-53.1,11.8-76.1,64.2-79,71
				c-5,11.8-6.4,21-9,39c-6.6,44.9-14.6,100,13,146c6.8,11.4,20.2,25.2,47,53c19.2,19.9,28.8,29.9,38,37c0,0,54.4,42.2,138,43
				c3.4,0,7.7-0.1,13-1c25.4-4.5,42-23.2,48-31c19.1-24.8,18.4-52.6,18-61c-1.1-25.1-11.4-41.6-28-68c-30.4-48.5-42.9-36.8-88-92
				c-3.8-4.7-9.1-11.3-17-12c-22.8-2-44.6,46.9-42,65c0.8,5.8,3,11,3,11c3.1,7.4,7.3,12.1,9,14c24.8,27.6,37.6,47.1,44,44
				c6.8-3.3-6.2-25.6,6-44c6.3-9.5,19.2-17.8,31-15c15.6,3.7,20.8,24.9,22,30c6.1,25.1-7.5,47-13,56c-3.6,5.9-16.9,25.9-42,38
				c-40.7,19.5-99.3,11.7-128-24c-15.5-19.2-16.3-40.2-18-82c0,0-2.9-73.4,35-135c1.5-2.4,3.9-6.1,8-10c19.3-18.2,49.4-14.8,55-14
				c27.5,3.7,57.4,22.7,72,48c3.6,6.2,7.3,14.6,11,14C1186.9,1375.2,1189.4,1358.9,1188,1347z"/>
			<path class="st3" d="M1364,1421c1.2-0.6,18.9,30.6,50,55c3.7,2.9,9.2,7,17,8c17.1,2.3,31.7-11.9,39-19c16.7-16.2,43.4-53.4,29-80
				c-5.4-9.9-14.4-14.6-21-18c-19.9-10.3-39.6-7.4-61-4c-25,4-43.9,7.1-65,21c-12.1,8-41,30.3-51,70c-2.9,11.7-10,39.9,4,66
				c3,5.6,14,24.2,66,44c20.7,7.9,59.9,22.4,115,23c60.2,0.6,102.1-15.9,138-30c20.2-7.9,31.3-14.1,41-25c5-5.7,18.3-22.2,23-76
				c1-11.3,2.1-29.4-3-95c-3.6-46.8-5.5-70.4-10-86c-14.1-48.7-39.5-74.5-35-78c4.1-3.3,23.8,20,62,53c3.2,2.7,10.8,9.2,18,20
				c0.8,1.2,6.8,10.1,11,22c10.7,29.9,11,79.3,11,88c0,30.8-0.6,52.6-2,95c-0.3,10.2-1.1,33.3-5,63c-3.5,26.9-8,47-24,62
				c-3.2,3-5.8,4.8-9,7c-21.7,15-40.2,15.8-65,22c-25,6.2-23.1,9.6-44,15c-43.3,11.3-80.8,4.5-106,0c-13.3-2.4-44.8-8.9-83-27
				c-101-47.8-149.1-128.7-162-165c-5.9-16.7-6.3-29.1-6-36c1-27.3,14.5-46.9,21-56c20.2-28.5,47-40.4,60-46c12.1-5.2,47.9-20,91-10
				c20.5,4.8,33.7,13.1,51,24c48.4,30.6,69,65.3,103,123c1.7,2.9,4.6,8,5,15c0.8,16.7-14,29.5-33,46c-25.2,21.8-47.6,31.2-58,35
				c-8.5,3.1-12.8,4.7-16,5C1410.9,1556.3,1361.6,1422.3,1364,1421z"/>
			<path class="st3" d="M2133,1513c-1.8,1.2,7.4,14.4,25,57c17.9,43.3,20.1,57.8,21,67c1.2,12.7,2.9,31.1-5,52
				c-9.1,24.1-25.8,37.8-42,51c-20.7,16.9-38.8,24.9-66,37c-19.5,8.7-41.3,18.3-71,25c-28.4,6.4-53.3,12-81,7
				c-52.2-9.4-105.3-54.8-116-114c-1.8-10.2-9-49.7,15-85c20.8-30.6,52.6-39.5,72-45c22.1-6.2,56.2-15.8,86,3c3,1.9,29,18.9,34,50
				c1,6.2,3.2,21.2-5,37c-1.7,3.3-9.5,18.4-25,24c-24.6,9-49.5-12.8-52-9c-2.8,4.2,33.4,22.2,71,60c5.9,6,15.1,15.6,29,17
				c10.6,1,22.6-2.9,30-11c9.9-10.9,9.8-27.3,5-50c-14.8-70.2-56-118-56-118c-24.7-28.6-51.9-60.2-100-72
				c-11.6-2.8-68.3-16.7-116,18c-27.1,19.7-38.5,45.8-42,55c-13.1,34.2-6.7,64-2,86c10.5,48.9,35.9,81.2,47,95
				c38.9,48.3,84.8,68.9,123,86c30.6,13.7,59.2,26.2,99,27c28.4,0.6,48.4-5,77-13c59.7-16.7,99-27.7,123-64c20.1-30.4,20-64.2,20-76
				c0-11.6-1.4-31.1-16-68C2185.2,1566.4,2136.8,1510.5,2133,1513z"/>
			<path class="st3" d="M2029,1302c25.6,15.2,38.5-8.4,84,3c21.7,5.4,34.8,14.8,49,25c14,10,19.3,16.9,21,25c1.5,7-0.2,12.6-3,22
				c-2.2,7.3-6.4,20.7-18,32c-4.5,4.3-9.7,7.3-20,13c-21,11.6-36.9,17-43,19c-24.5,7.9-31.6,5.6-35,4c-1.5-0.7-9.2-4.2-12-12
				c-2.9-8.1,1.3-16.2,5-23c8.8-16.3,17.2-15.6,19-25c2-10.4-6.6-20.2-18-33c-9-10.1-15.5-17.5-27-20c-2.9-0.6-15-3.3-26,4
				c-11.5,7.7-13.5,20.8-14,24c-0.5,3.5-0.9,9,1,16c8.5,32.1,57.6,75.4,100,115c5.7,5.3,6.3,5.9,8,7c38.7,24.6,173-59.5,132-39l0,0
				c0,0,9.2-6.4,11-8c5.2-4.6,7.7-20.5-9-53c-31.9-61.9-89.4-97.5-115-113c-21.7-13.1-36.5-19.4-43-22c-38.4-15.5-86.2-24.2-90-15
				c-0.9,2.2,0.9,4.7,5,10C2011.6,1284.5,2021.8,1297.7,2029,1302z"/>
			<path class="st3" d="M1629,1036c5.1-0.2,63-114.7,170-95c76,14,143.6,37.1,147,40c11.3,9.8,42.7,37,44,75c0.2,6.6-0.9,12.4-3,24
				c-7.6,40.9-21.9,71.7-28,84c-10,20.1-22.2,44.8-47,70c-4.3,4.4-29.9,30.1-55,41c-82.5,35.8-196.4-72.2-205-61
				c-5.9,7.6,40.4,66.5,114,102c37.5,18.1,87.9,42.4,145,26c74.3-21.4,105.8-96.5,119-128c10.4-24.7,36.5-87,11-150
				c-9.1-22.5-21.1-35.9-39-56c-10.6-11.9-58.1-63.4-142-95c-25-9.4-66.7-24.7-123-24c-51.2,0.7-86.5,14.2-111,24
				c-25.6,10.2-37.2,18.5-46,30c-21.1,27.7-14.6,59.6-13,64c0.8,2.3,4.3,7.9,6,10c0.9,1.1,1.8,1.7,2.2,2c1.3,0.9,2.4,1.2,2.8,1.3
				c9.2,2.8,38.1,11.5,43.3,14c0.4,0.2,1.8,0.9,3.8,1.3C1625.2,1035.7,1627,1036.1,1629,1036z"/>
			<path class="st3" d="M1465,1098c3.3-6.5-16.8-27.3-33-39c-4.8-3.4-8.8-5.8-11-7c-38.4-21.5-89.5-25.7-135-33c-8-1.3-16-1.8-24-3
				c-10.2-1.6-12.5-2.4-15-1c-8.6,4.9-4.1,28.3-2,38c11.2,52.2,33,89,33,89c5.6,9.5,41,68.2,96,107c13,9.2,29.6,17.1,63,33
				c2.4,1.1,6.8,3.2,13,4c14.1,1.8,25.4-4.5,30-7c36.5-19.8,48.5-14.8,144-74c6-3.7,12.4-7.7,19-15c14.3-15.6,17.8-33.2,23-61
				c4.6-24.4,6.8-36.9,3-53c-2.3-9.7-6.7-21-17-35c-23.7-32.4-56-48.6-75.5-58.5c-99.5-50.6-130.9-72.4-135.5-66
				c-3.6,5.1,12,23.7,31.5,47c3.5,4.1,6.9,7,7.5,7.5c0,0,2.6,2.2,5.5,4c10.4,6.6,73.2,26.3,114.5,48c8.2,4.3,10,5.8,11.5,8
				c15.8,22.9-24.6,80.4-60,114c-19.5,18.5-42.8,31.5-89.5,57.5c-51.2,28.5-65.1,30-77,28.5c-36.6-4.6-58.4-38-64-46.5
				c-21.6-33-33.4-88.2-10.5-109C1347.3,1042,1457.7,1112.2,1465,1098z"/>
			<path class="st3" d="M1193,997c-7.6-22-2.4-40.6-19-58c-8.6-9-18.9-13.4-25-16c-18.4-7.8-34.5-7.4-45-7c-6.4,0.2-25.1,1.4-48,11
				c-39.2,16.4-61.8,45.4-76,64c-9.9,13-32.8,45.8-43,93c-4.6,21.4-8.4,40.4,0,61c3.3,8,10.2,20.7,37,40c57.4,41.3,115.7,48,126,49
				c35,3.5,58.2,5.9,82-9c36.1-22.6,41.6-64.6,42-68c0.5-4.6,4.7-47.2-26-76c-4.9-4.6-22.6-20-48-21c-3.7-0.1-33-0.9-41,15
				c-1.8,3.7-2,7-2,10c-0.4,33.6,10.5,59.3,4,86c-1.1,4.5-2.6,8.7-5,9c-4.3,0.5-6-12.3-15-25c-12.6-17.7-24.8-14.9-36-32
				c-5-7.6-6.4-14.1-9-26c-2-9.1-6.2-29.6,0-54c3.4-13.5,8.1-31.8,22-42c28.3-20.7,76.9,8.5,88,15c19.7,11.6,31,24.2,46,41
				c8.7,9.7,35,40.3,57,90c14.9,33.7,22.4,50.5,21,73c-0.5,8.6-3.7,51.9-36,74c-14.9,10.2-34.9,15.1-80,8
				c-94.4-14.9-159.9-60.9-167-66c-45.9-32.9-100.5-72.2-117-143c-3.1-13.3-12.7-57.1,7-106c25.3-62.7,80.7-89.1,100-97
				c13.5-5.5,52.6-20.8,101-11c54.2,11,86.1,46.8,112,76c35.3,39.7,64.6,92.7,57,99C1250.3,1059.5,1206.3,1035.7,1193,997z"/>
			<path class="st3" d="M711.6,1112.6c-6.1,4.1-23.9-26.8-58.5-58.5c-3-2.7-8.6-7.8-9-15c-0.6-11.7,12.9-22.5,24-27
				c5.7-2.3,18.3-6,37.5,0c5.8,1.8,29.7,9.5,58.9,45.4c31.7,39,25.9,57.2,56.6,110.6c2,3.6,6.3,10.8,7.5,21
				c2.7,22.2-10.7,40.6-15,46.5c-30,41.2-108,56.1-144,27c-11.1-9-9.6-15.2-33-40.5c-17.4-18.8-31.6-29.8-39-36
				c-2.1-1.8-51.4-43.8-70.5-94.5c-33.3-88.6,34.6-180.2,39-186c15.7-20.6,38.3-50.1,76.5-58.5c29.9-6.6,55.9,2.8,102,19.5
				c32.4,11.7,48.5,17.6,61.5,31.5c26.2,28.2,14.9,54.1,39,70.5c25.9,17.6,54.9-1.4,66,15c8.7,12.8-0.9,36.8-15,49.5
				c-22.9,20.6-62.9,16-75-1.5c-10-14.5,6-27.7,1.5-61.5c-1-7.4-5.3-36.6-28.5-58.5c-29.2-27.6-68.6-24.9-81-24
				c-11.3,0.8-34.3,2.4-55.5,18c-12.8,9.5-22.7,28.4-42,66c-14.4,28-21.6,42.1-25.5,55.5c-9.1,31.2-8.2,56.8-7.5,72
				c0.9,20.5,1.5,33.6,9,49.5c9.2,19.4,22.9,30.4,30,36c13.2,10.4,39.6,31.2,75,25.5c38.8-6.3,57.8-39.5,60-43.5
				c1.8-3.3,10.8-20.1,10.5-43.5c-0.2-21.3-8.1-57.7-30-63c-9.2-2.2-21.3,1-27,9C699.1,1084.4,717.3,1108.9,711.6,1112.6z"/>
			<path class="st3" d="M788.9,2217.6c-2-5.7-3.6-11.6-5.2-17.4c-2.6-4.2-5.2-8.9-7.7-14.2c-8.2-17.6-5.4-21.1-12-40
				c0,0-20-57.3-90-104c-5.2-3.5-8.9-5.1-10.5-5.8c-12.3-5.1-19.1-2.6-32.5-5c-10.3-1.9-18.7-3.4-25-9.8c-12.3-12.5-7.5-34-7.3-35.3
				c3.4-14.3,13.4-23.1,28.3-36.3c12.3-10.9,14.8-9.9,26.3-21.3c17.3-17.1,18.8-26.3,19-30.5c0.3-7.5-2.6-13.1-4.8-17.3
				c-12.2-23.7-24-50.3-28.8-64.3c-2.9-8.5-9.5-28.1-7.3-53c2-22.7,10.4-38.9,16.3-50c0,0,20.7-39,66.3-65.8
				c6-3.5,10.7-4.8,10.7-4.8c3.9-1,4.6-0.5,5.3-1.3c3.5-4-15.2-24.3-34-48c-23.1-29.2-22-32.6-28-34c-26.2-6.1-70.6,53.1-84,112
				c-6.5,28.5-15.2,66.5,4,98c9.4,15.4,24.7,28.2,26,52c0.2,4.5,0.4,16.9-6,30c-11,22.6-28.4,20.6-46,40c-20.6,22.8-27.3,59.4-16,84
				c3.2,7,4.6,5.9,24,26c31.8,33.1,35,43.4,62,68c13.4,12.2,20,18.2,28,22c20.7,9.7,33.7,4.4,52,16c10.2,6.5,15.8,14.3,20.1,20.4
				c18.5,25.8,19.5,55.1,19.9,65.6c0.1,3.2,0.2,6.4,0.4,9.7c13.8,13.5,27.5,26.9,41.5,40.2c0.8-3,1.6-6.1,2.4-9.1
				C793.2,2229.3,790.9,2223.4,788.9,2217.6z"/>
			<path class="st3" d="M1980.5,1849.1c4.5-11.9,28.1-21,43.5-10.5c9.2,6.3,15.4,19.4,12,28.5c-2.7,7.3-11.3,10.7-10.5,18
				c0.3,2.9,1.9,4.9,2.5,5.6c6.5,8.6,14.1,38.9,16.3,64.3c3.9,45-7.9,87.3-17,100c-0.4,0.5-1.3,1.8-1.8,3.8
				c-2.7,10.6,13.5,21.7,29.5,36.3c12.9,11.7,26.9,24.5,37,42.3c6.1,10.8,15.7,27.8,12,48.7c-3.9,22.4-20.8,35.7-25.3,39.3
				c-16.5,13.1-35.2,15.9-67.3,20.7c-16.5,2.5-15.6,1-27.3,3.3c-9,1.8-29.5,6.5-56.5,21.4c-8.3,4.6-14.9,8.8-54.5,40
				c-40.5,31.9-41.4,33.5-56.8,44.5c-19.8,14.2-35.7,25.5-58.8,36.8c-19,9.2-34.9,14.1-66,23.5c-21.7,6.6-48.7,14.7-84.5,22
				c-29.5,6-57.3,9.9-103,14c-72.6,6.5-129.7,8.2-159,9c-139.9,3.7-210.5,5.4-243-2.5c-76.7-18.7-129.2-57.2-158-78
				c-85.5-61.9-139.3-140.1-136-143.3c1.2-1.2,11.2,7.1,22,16c26.8,22.2,43.6,42.2,48.7,48c21.9,25.1,45.9,38.9,81.3,59.3
				c20.1,11.5,47.9,24,210,42c67.6,7.5,103.8,11.5,158,14c74,3.4,115.5,5.3,170,0c55.9-5.4,186.2-18.1,268-82c73.8-57.7,94-80,94-80
				c6-6.6,13.2-15,26-22c23.8-12.9,40-6,74-14c13.8-3.2,30.1-7.1,46-18c31.4-21.5,53.3-64.9,40-84c-8-11.6-30.9-17-37.5-14.3
				c-0.5,0.2-2.6,1.2-5.5,1.3c0,0-4.3,0.1-8.8-2.8c-13.9-8.8-37.3-62.8-44.3-69c-0.4-0.3-1.9-1.6-1.8-3.3c0.1-2.5,4.1-4.2,4.7-4.5
				c13.7-6.4,25.8-51.5,25.8-51.5c13.4-49.7,20.1-74.6,12-94.7C1985.1,1863.5,1977.4,1857.5,1980.5,1849.1z"/>
			<ellipse class="st3" cx="1188.7" cy="1850.6" rx="53.3" ry="76.9"/>
			<ellipse class="st3" cx="1479.7" cy="1850.6" rx="53.3" ry="76.9"/>
			<path class="st4" d="M1299.3,2450.7c-3.8-13-43-17.3-48-7.3c-1.2,2.4-0.2,5.1,0.2,6.2c20.1,53.6,27.5,63,27.5,63
				c42.3,54.2,72,81.5,72,81.5c36.1,33.2,54.1,49.8,78,63c50.9,28,98.6,31.8,130,34c33.3,2.3,73,5,119-13c24.4-9.5,62.5-24.5,79-62
				c10.3-23.4,8-46.2,7-57c-0.8-7.9-3.3-27.1-24-66c-23.8-44.9-53.7-82.1-57-80c-2,1.3,7.8,15.1,16,44c5.7,20.1,9.8,34.6,8,53
				c-3.2,31.5-21.6,53.3-29,61c-13.7,14.4-27.4,20.5-49,30c-36.3,15.9-67.4,21.2-79,23c-66.5,10-118-3.4-131-7
				c-28.7-8-51.9-14.5-73.6-35.4c-10.7-10.2-19.5-26.6-37.1-59.4c-16-29.8-19.9-43.4-15.3-55.8
				C1296,2458.6,1300.8,2455.7,1299.3,2450.7z"/>
		</g>
		<g class="st5">
			<rect x="305" y="510" class="st6" width="2044" height="2044"/>
			<g>
				<rect x="269" y="548" class="st7" width="2044" height="2044"/>
				<path class="st8" d="M254,533v2074h852c0.3-1.6,117.5-28.5,121.6-30H284V563h2014v2014l-1035,0.2c0.1,0.6-121.3,29.4-122.5,29.8
					H2328V533H254z"/>
			</g>
			<path class="st8" d="M2230,1552c-29.8-75.6-78.2-131.5-82-129c-1.8,1.2,7.4,14.4,25,57c17.9,43.3,20.1,57.8,21,67
				c1.2,12.7,2.9,31.1-5,52c-9.1,24.1-25.8,37.8-42,51c-20.7,16.9-38.8,24.9-66,37c-19.5,8.7-41.3,18.3-71,25
				c-28.4,6.4-53.3,12-81,7c-52.2-9.4-105.3-54.8-116-114c-1.8-10.2-9-49.7,15-85c20.8-30.6,52.6-39.5,72-45
				c22.1-6.2,56.2-15.8,86,3c3,1.9,29,18.9,34,50c1,6.2,3.2,21.2-5,37c-1.7,3.3-9.5,18.4-25,24c-24.6,9-49.5-12.8-52-9
				c-2.8,4.2,33.4,22.2,71,60c5.9,6,15.1,15.6,29,17c10.6,1,22.6-2.9,30-11c9.9-10.9,9.8-27.3,5-50c-14.8-70.2-56-118-56-118
				c-24.7-28.6-51.9-60.2-100-72c-11.6-2.8-68.3-16.7-116,18c-27.1,19.7-38.5,45.8-42,55c-13.1,34.2-6.7,64-2,86
				c10.5,48.9,35.9,81.2,47,95c38.9,48.3,84.8,68.9,123,86c22.6,10.1,44.1,19.6,69.8,24.1c2.2,4.5,5.8,9.7,8.9,17.2
				c8.1,20.1,1.4,44.9-12,94.7c0,0-12.1,45.1-25.8,51.5c-0.6,0.3-4.5,2-4.7,4.5c-0.1,1.6,1.5,2.9,1.8,3.3c6.9,6.2,30.4,60.2,44.3,69
				c4.4,2.8,8.8,2.8,8.8,2.8c2.9,0,5-1,5.5-1.3c6.6-2.8,29.5,2.7,37.5,14.3c13.3,19.1-8.6,62.5-40,84c-15.9,10.9-32.2,14.8-46,18
				c-34,8-50.2,1.1-74,14c-12.8,7-20,15.4-26,22c0,0-20.2,22.3-94,80c-81.8,63.9-212.1,76.6-268,82c-54.5,5.3-96,3.4-170,0
				c-54.2-2.5-90.4-6.5-158-14c-162.1-18-189.9-30.5-210-42c-35.5-20.4-59.4-34.2-81.3-59.3c-5-5.8-21.9-25.8-48.7-48
				c-10.8-8.9-20.8-17.2-22-16c-3.3,3.2,50.5,81.5,136,143.3c28.8,20.8,81.3,59.3,158,78c32.5,7.9,103.1,6.2,243,2.5
				c29.3-0.8,86.4-2.5,159-9c45.7-4.1,73.5-8,103-14c35.8-7.3,62.8-15.4,84.5-22c31.1-9.4,47-14.3,66-23.5
				c23-11.2,39-22.6,58.8-36.8c15.4-11,16.2-12.6,56.8-44.5c39.6-31.2,46.2-35.4,54.5-40c27-14.9,47.5-19.6,56.5-21.4
				c11.8-2.3,10.9-0.9,27.3-3.3c32.1-4.8,50.8-7.6,67.3-20.7c4.6-3.6,21.4-16.9,25.3-39.3c3.7-20.9-5.9-37.9-12-48.7
				c-10.1-17.9-24.1-30.6-37-42.3c-16-14.5-32.2-25.7-29.5-36.3c0.5-1.9,1.4-3.2,1.8-3.8c9.1-12.7,20.9-55,17-100
				c-2.2-25.5-9.8-55.8-16.3-64.3c-0.5-0.7-2.1-2.7-2.5-5.6c-0.8-7.3,7.8-10.7,10.5-18c0.6-1.7,0.9-3.5,0.9-5.4
				c16.5-2.1,31.9-6.3,51-11.7c59.7-16.7,99-27.7,123-64c20.1-30.4,20-64.2,20-76C2246,1608.4,2244.5,1588.9,2230,1552z"/>
			<path class="st8" d="M2249,1308c-31.9-61.9-89.4-97.5-115-113c-21.7-13.1-36.5-19.4-43-22c-20.2-8.1-42.9-14.4-60.5-17.2
				c6.4-12.4,11.1-23.6,14.5-31.8c10.4-24.7,36.5-87,11-150c-9.1-22.5-21.1-35.9-39-56c-10.6-11.9-58.1-63.4-142-95
				c-25-9.4-66.7-24.7-123-24c-51.2,0.7-86.5,14.2-111,24c-25.6,10.2-37.2,18.5-46,30c-8.6,11.4-12.6,23.4-14.3,34
				c-91-46.7-120.3-66.7-124.7-60.5c-3.6,5.1,12,23.7,31.5,47c3.5,4.1,6.9,7,7.5,7.5c0,0,2.6,2.2,5.5,4c7.9,5,45.9,17.6,81.8,32.8
				c1.2,2.6,4.1,7.3,5.7,9.2c0.9,1.1,1.8,1.7,2.2,2c1.3,0.9,2.4,1.2,2.8,1.3c6.4,1.9,22.4,6.7,33.3,10.3c0.1,0.1,0.2,0.2,0.2,0.3
				c15.8,22.9-24.6,80.4-60,114c-19.5,18.5-42.8,31.5-89.5,57.5c-51.2,28.5-65.1,30-77,28.5c-36.6-4.6-58.4-38-64-46.5
				c-21.6-33-33.4-88.2-10.5-109c36.8-33.5,147.2,36.7,154.5,22.5c3.3-6.5-16.8-27.3-33-39c-4.8-3.4-8.8-5.8-11-7
				c-38.4-21.5-89.5-25.7-135-33c-8-1.3-16-1.8-24-3c-10.2-1.6-12.5-2.4-15-1c-0.9,0.5-1.7,1.3-2.3,2.2c-10.8-19-27-42.3-44.7-62.2
				c-25.9-29.2-57.8-65-112-76c-48.4-9.8-87.5,5.5-101,11c-18.2,7.4-68.4,31.3-95.2,86.3c-13.4,0.1-30.6,3.2-46.6-7.7
				c-24.1-16.4-12.8-42.2-39-70.5c-12.9-13.9-29.1-19.8-61.5-31.5c-46.1-16.7-72.1-26.1-102-19.5c-38.2,8.4-60.8,37.9-76.5,58.5
				c-4.4,5.8-72.3,97.4-39,186c19.1,50.7,68.4,92.7,70.5,94.5c7.4,6.2,21.6,17.2,39,36c23.4,25.3,21.9,31.5,33,40.5
				c2.8,2.3,5.9,4.3,9.2,6c-19.1,30-10.4,68-4.5,93.7c1.3,5.8,7.3,30.4,24,58.5c7.9,13.2,12.8,18.3,78,87c13.9,14.6,18.6,19.6,27,27
				c9.5,8.4,18.8,15.4,55.5,39c44.9,28.9,50.1,30.6,57,31.5c7.5,1,32.5,3.2,54-13.5c17-13.2,22.8-31.2,24.9-39.6
				c3.8,3.9,7.8,8.1,12.3,12.8c19.2,19.9,28.8,29.9,38,37c0,0,54.4,42.2,138,43c3.4,0,7.7-0.1,13-1c25.4-4.5,42-23.2,48-31
				c19.1-24.8,18.4-52.6,18-61c-1.1-25.1-11.4-41.6-28-68c-30.4-48.5-42.9-36.8-88-92c-3.8-4.7-9.1-11.3-17-12
				c-22.8-2-44.6,46.9-42,65c0.8,5.8,3,11,3,11c3.1,7.4,7.3,12.1,9,14c24.8,27.6,37.6,47.1,44,44c6.8-3.3-6.2-25.6,6-44
				c6.3-9.5,19.2-17.8,31-15c15.6,3.7,20.8,24.9,22,30c6.1,25.1-7.5,47-13,56c-3.6,5.9-16.9,25.9-42,38c-40.7,19.5-99.3,11.7-128-24
				c-15.5-19.2-16.3-40.2-18-82c0,0-2.9-73.4,35-135c1.5-2.4,3.9-6.1,8-10c19.3-18.2,49.4-14.8,55-14c27.5,3.7,57.4,22.7,72,48
				c3.6,6.2,7.3,14.6,11,14c4.9-0.8,7.4-17.1,6-29c-2.5-20.5-17.9-35.4-32.9-46.5c2.9,0.5,5.9,1,8.9,1.5c45.1,7.1,65.1,2.2,80-8
				c32.3-22.1,35.5-65.4,36-74c1.4-22.5-6.1-39.3-21-73c-22-49.7-48.3-80.3-57-90c-15-16.8-26.3-29.4-46-41
				c-11.1-6.5-59.7-35.7-88-15c-13.9,10.2-18.6,28.5-22,42c-6.2,24.4-2,44.9,0,54c2.6,11.9,4,18.4,9,26c11.2,17.1,23.4,14.3,36,32
				c9,12.7,10.7,25.5,15,25c2.4-0.3,3.9-4.5,5-9c6.5-26.7-4.4-52.4-4-86c0-3,0.2-6.3,2-10c8-15.9,37.3-15.1,41-15
				c25.4,1,43.1,16.4,48,21c30.7,28.8,26.5,71.4,26,76c-0.4,3.4-5.9,45.4-42,68c-23.8,14.9-47,12.5-82,9c-10.3-1-68.6-7.7-126-49
				c-26.8-19.3-33.7-32-37-40c-8.4-20.6-4.6-39.6,0-61c10.2-47.2,33.1-80,43-93c14.2-18.6,36.8-47.6,76-64c22.9-9.6,41.6-10.8,48-11
				c10.5-0.4,26.6-0.8,45,7c6.1,2.6,16.4,7,25,16c16.6,17.4,11.4,36,19,58c9.7,28.3,35.9,48.6,51.9,55.4c0,0.2,0.1,0.4,0.1,0.6
				c11.2,52.2,33,89,33,89c5.6,9.5,41,68.2,96,107c13,9.2,29.6,17.1,63,33c2.4,1.1,6.8,3.2,13,4c14.1,1.8,25.4-4.5,30-7
				c36.5-19.8,48.5-14.8,144-74c6-3.7,12.4-7.7,19-15c14.3-15.6,17.8-33.2,23-61c4.6-24.4,6.8-36.9,3-53c-2.3-9.7-6.7-21-17-35
				c-4.4-6-9.1-11.5-13.9-16.4c20.6-28.5,74.9-99.4,160.9-83.6c76,14,143.6,37.1,147,40c11.3,9.8,42.7,37,44,75
				c0.2,6.6-0.9,12.4-3,24c-7.6,40.9-21.9,71.7-28,84c-10,20.1-22.2,44.8-47,70c-4.3,4.4-29.9,30.1-55,41
				c-66.5,28.9-153.3-35.6-189.1-55.9c-16.2-15.3-25.3-24.2-27.9-22.1c-4.5,3.5,20.9,29.3,35,78c4.5,15.6,6.4,39.2,10,86
				c5.1,65.6,4,83.7,3,95c-4.7,53.8-18,70.3-23,76c-9.7,10.9-20.8,17.1-41,25c-35.9,14.1-77.8,30.6-138,30
				c-55.1-0.6-94.3-15.1-115-23c-52-19.8-63-38.4-66-44c-14-26.1-6.9-54.3-4-66c10-39.7,38.9-62,51-70c21.1-13.9,40-17,65-21
				c21.4-3.4,41.1-6.3,61,4c6.6,3.4,15.6,8.1,21,18c14.4,26.6-12.3,63.8-29,80c-7.3,7.1-21.9,21.3-39,19c-7.8-1-13.3-5.1-17-8
				c-31.1-24.4-48.8-55.6-50-55c-2.4,1.3,46.9,135.3,96,131c3.2-0.3,7.5-1.9,16-5c10.4-3.8,32.8-13.2,58-35c19-16.5,33.8-29.3,33-46
				c-0.4-7-3.3-12.1-5-15c-34-57.7-54.6-92.4-103-123c-17.3-10.9-30.5-19.2-51-24c-43.1-10-78.9,4.8-91,10c-13,5.6-39.8,17.5-60,46
				c-6.5,9.1-20,28.7-21,56c-0.3,6.9,0.1,19.3,6,36c12.9,36.3,61,117.2,162,165c38.2,18.1,69.7,24.6,83,27c25.2,4.5,62.7,11.3,106,0
				c20.9-5.4,19-8.8,44-15c24.8-6.2,43.3-7,65-22c3.2-2.2,5.8-4,9-7c16-15,20.5-35.1,24-62c3.9-29.7,4.7-52.8,5-63
				c1.4-42.4,2-64.2,2-95c0-8.2-0.3-52.5-9.2-82.6c10.3,6.6,21.4,12.9,33.2,18.6c37.5,18.1,87.9,42.4,145,26
				c42.5-12.2,70.9-42,90-71.1c14.1,18,22.1,27.6,28,31.1c25.6,15.2,38.5-8.4,84,3c21.7,5.4,34.8,14.8,49,25c14,10,19.3,16.9,21,25
				c1.5,7-0.2,12.6-3,22c-2.2,7.3-6.4,20.7-18,32c-4.5,4.3-9.7,7.3-20,13c-21,11.6-36.9,17-43,19c-24.5,7.9-31.6,5.6-35,4
				c-1.5-0.7-9.2-4.2-12-12c-2.9-8.1,1.3-16.2,5-23c8.8-16.3,17.2-15.6,19-25c2-10.4-6.6-20.2-18-33c-9-10.1-15.5-17.5-27-20
				c-2.9-0.6-15-3.3-26,4c-11.5,7.7-13.5,20.8-14,24c-0.5,3.5-0.9,9,1,16c8.5,32.1,57.6,75.4,100,115c5.7,5.3,6.3,5.9,8,7
				c38.7,24.6,173-59.5,132-39c0,0,9.2-6.4,11-8C2263.2,1356.4,2265.7,1340.5,2249,1308z M895,1455.3c-14.7-3.3-30.5-6.7-37.3-9
				c-14.2-4.8-21.8-4.7-45-18.3c-27-16-26.5-22.1-36-33.3c-10.7-12.6-28.2-38.1-32-59.7c-1.7-9.5-4-21.5-4.2-33.3
				c-0.1-7.9,0.6-19.5,1.7-30.5c2.2-22.2,3.4-42.1,13.8-59.8c8.5-14.4,18.3-20.3,30-25.3c21.4-9.2,32.7-12.9,47.3-11.3
				c18.7,2.1,34.5,6.8,55.5,15c52,20.4,77.6,40.1,85.1,41c-1.5,2.9-2.4,5.1-2.8,6.1c-5,11.8-6.4,21-9,39
				c-2.1,14.5-4.4,30.1-5.6,46.2c-15.3-25.5-21.7-38.3-37.7-57.3c-9.9-11.9-18.3-19.9-28.5-27c-2.5-1.8-14.8-10.2-33-16.5
				c-12.5-4.3-20.3-6.9-30-4.5c-9.2,2.3-15.1,7.8-18,10.5c-14,13.3-14.8,31.2-15,36c-0.1,3.2-0.1,12.6,4.5,24
				c11.7,28.7,44.6,48.3,52.5,42c8.5-6.8-1.5-7.8,12.6-37.4c4.2-8.7,11.9-14,17.8-12.8c5.8,1.3,5.3,0.1,13.5,3c5,1.8,3.4,0.6,12.5,5
				c9.3,4.5,9.8,2.4,23.7,29.5c8.9,17.3,12.1,25.7,12.7,28.7c5,27.3,3.2,21.3,6,43.3C955,1427.5,934.3,1461.3,895,1455.3z
				 M1012,1146c2.8,2,14.9,10.5,34.3,20.9c-39.4,10.4-61.5,43.3-70.6,60.4c-4-10-33.8-37.8-68.7-61.3c-17.1-11.5-36.1-31-69.1-35.7
				c3.9-8.4,7.1-19.2,5.7-31.2c-1.2-10.2-5.5-17.4-7.5-21c-30.7-53.4-24.8-71.6-56.6-110.6c-29.3-35.9-53.2-43.6-58.9-45.4
				c-19.2-6-31.8-2.3-37.5,0c-11.1,4.5-24.6,15.3-24,27c0.4,7.2,6,12.3,9,15c34.6,31.7,52.4,62.6,58.5,58.5
				c5.7-3.8-12.5-28.2-1.5-43.5c5.7-8,17.8-11.2,27-9c21.9,5.3,29.8,41.7,30,63c0.3,23.4-8.7,40.2-10.5,43.5
				c-2.2,4-21.2,37.2-60,43.5c-35.4,5.7-61.8-15.1-75-25.5c-7.1-5.6-20.8-16.6-30-36c-7.5-15.9-8.1-29-9-49.5
				c-0.7-15.2-1.6-40.8,7.5-72c3.9-13.4,11.1-27.5,25.5-55.5c19.3-37.6,29.2-56.5,42-66c21.2-15.6,44.2-17.2,55.5-18
				c12.4-0.9,51.8-3.6,81,24c23.2,21.9,27.5,51.1,28.5,58.5c4.5,33.8-11.5,47-1.5,61.5c8.9,12.9,32.8,18.7,53.9,12.8
				c-0.8,23.1,3.2,40.9,5,48.5C911.5,1073.8,966.1,1113.1,1012,1146z"/>
			<path class="st8" d="M675,2002c20.7,9.7,33.7,4.4,52,16c10.2,6.5,15.8,14.3,20.1,20.4c18.5,25.8,19.5,55.1,19.9,65.6
				c0.1,3.2,0.2,6.4,0.4,9.7c13.8,13.5,27.5,26.9,41.5,40.2c0.8-3,1.6-6.1,2.4-9.1c-3.1-5.5-5.4-11.3-7.5-17.2
				c-2-5.7-3.6-11.6-5.2-17.4c-2.6-4.2-5.2-8.9-7.7-14.2c-8.2-17.6-5.4-21.1-12-40c0,0-20-57.3-90-104c-5.2-3.5-8.9-5.1-10.5-5.8
				c-12.3-5.1-19.1-2.6-32.5-5c-10.3-1.9-18.7-3.4-25-9.8c-12.3-12.5-7.5-34-7.3-35.3c3.4-14.3,13.4-23.1,28.3-36.3
				c12.3-10.9,14.8-9.9,26.3-21.3c17.3-17.1,18.8-26.3,19-30.5c0.3-7.5-2.6-13.1-4.8-17.3c-12.2-23.7-24-50.3-28.8-64.3
				c-1.9-5.5-5.3-15.8-6.9-29.2l314.2,6.3l0.2-0.5c-0.1,1.7-0.2,3.4-0.2,5.1v129.1c0,44,36,80,80,80h173c44,0,80-36,80-80v-129.1
				c0-44-36-80-80-80h-173c-32,0-59.8,19.1-72.6,46.5l-321.7-4.1c2.4-21.2,10.3-36.4,15.9-47.1c0,0,20.7-39,66.3-65.8
				c6-3.5,10.7-4.8,10.7-4.8c3.9-1,4.6-0.5,5.3-1.3c3.5-4-15.2-24.3-34-48c-5.1-6.4-9-11.6-12.1-15.8c0.3-1.2,0.6-2.4,0.7-3.6
				c0.5-3.3,1.1-12.7,0-24c-1.3-12.5-4.2-21.5-7.5-31.5c-2-6.1-6.6-19.3-15-36c-6.4-12.9-12.8-22.6-25.5-42c0,0-9-13.7-27-34.5
				c-5.3-6.2-9.7-10.8-16.5-12c-11.4-2-23.1,6.4-22.5,9c0.3,1.1,2.8,0.7,7.5,3.2c2.8,1.5,4.7,3.1,6,4.3c5.4,4.8,8.1,10.8,10.5,15
				c4.7,8.2,7.4,8.4,13.5,16.5c7.7,10.1,10.9,19.6,13.5,27c2.6,7.6,16.2,47-3,79.5c-3,5.1-9.1,15.1-21,21c-9.7,4.8-18.8,4.6-24,4.5
				c-56-1.6-75-4.5-75-4.5c-40.2-6.1-60.3-9.2-70.5-13.5c-14.8-6.2-36.4-15.3-51-37.5c-9.5-14.4-11.7-27.7-15-48
				c-5.4-32.7-1.2-57.8,0-64.5c3.6-20.1,9.6-33.5,18-52.5c11.5-26,19.6-34.7,24-39c2.1-2.1,11.2-10.6,24-16.5
				c18.2-8.4,36-7.7,79.5,0c46.6,8.3,69.9,12.4,85.5,19.5c44.1,20,65.7,49.8,67.5,48c2.3-2.3-29-54.6-88.5-91.5
				c-78-48.3-151.6-37.5-168-33c-14,3.8-25.5,10.5-25.5,10.5c-4.4,2.6-14.2,8.7-25.5,21c-20.1,21.9-28.9,45.9-34.5,61.5
				c-6.2,17.4-13.3,37.2-13.5,64.5c-0.1,8.1,0.4,35,13.5,66c9.9,23.4,15.9,22.8,76.5,93c20.8,24,28.9,34.4,46.5,45
				c8.4,5.1,20,10.9,52.5,19.5c44.3,11.8,66.5,17.7,85.5,16.5c5.3-0.3,10.5-1,15.7-1.9c-4.8,11.3-8.7,23-11.3,34.8
				c-6.5,28.5-15.2,66.5,4,98c9.4,15.4,24.7,28.2,26,52c0.2,4.5,0.4,16.9-6,30c-11,22.6-28.4,20.6-46,40c-20.6,22.8-27.3,59.4-16,84
				c3.2,7,4.6,5.9,24,26c31.8,33.1,35,43.4,62,68C660.3,1992.2,667,1998.2,675,2002z M988.8,1668.8h69c0,0-42.9,13.4-51.5,20.5
				c-16.3,13.5-17.5,71.3-17.5,71.3V1668.8z"/>
			<path class="st8" d="M1177.2,2041.5c8.8-14.1,18.1-43.9,20-50.3l-17.2-5.2c-4.5,14.9-13.8,41.1-19.3,47.9
				c-4.9,5.9-26.8,18.9-40.7,26.3l8.4,15.9c4.4-2.3,21.3-11.3,34-20.3c8.6,31.5,34.7,103.7,93.3,112.7c27.4,4.2,53.6,6.3,78.7,6.3
				c22,0,43-1.6,62.9-4.9c34.3-5.6,65.5-16,92.6-31c30.8-17,49.3-35.9,58.6-47.2c12.8,13.6,33.7,30.5,36.6,32.9l11.3-14
				c-13-10.5-35.6-30.1-40.6-38.2c-1.7-2.8-5.1-14.8-7.2-24.2l-17.6,3.9c0.9,4.1,3.7,16,6.8,24.2c-6.2,8.4-24.1,29.3-57.7,47.6
				c-39.8,21.7-110.6,43.9-221.6,26.9C1203.6,2142.3,1181.5,2059.9,1177.2,2041.5z"/>
			<path class="st8" d="M1366,1951.3c-6.3-1.4-23.5-21.2-34.9-38.2l-14.9,10.1c6.6,9.8,29.5,42.2,46.1,45.8c1.3,0.3,2.7,0.4,4.2,0.4
				c17.1,0,45.9-17,54.9-22.6l-9.5-15.3C1392.9,1943.2,1371.4,1952.5,1366,1951.3z"/>
			<path class="st8" d="M1478.5,1917.6h173c44,0,80-36,80-80v-129.1c0-44-36-80-80-80h-173c-44,0-80,36-80,80v129.1
				C1398.5,1881.6,1434.5,1917.6,1478.5,1917.6z M1426.3,1668.8h69c0,0-42.9,13.4-51.5,20.5c-16.3,13.5-17.5,71.3-17.5,71.3V1668.8z
				"/>
			<path class="st8" d="M1760.2,2383.5c-122.9,42.2-511,63.2-582.6,54.9c-166.3-19.2-420.3-160.4-420.3-160.4l-169,179.8
				c0,0,150.9-24.3,219.3-22.3c202.5,6,550.5,33,714,61.5c16.6,2.9,22,6.1,29.7,4.4c135-30,293.9-60.3,382.8-67.5
				c201.9-16.4,228.5,29.7,228.5,29.7L1997.9,2278C1997.9,2278,1921.7,2328,1760.2,2383.5z"/>
			<g>
				<path class="st8" d="M2208.8,2530.2c-7.8-72.6-206.9-99.3-278.9-87.2C1330.5,2544,916,2666,859.3,2680.9
					c95.3,2.4,810.3,18.9,1087.9-2.6C2022.2,2672.6,2216.7,2604.9,2208.8,2530.2z"/>
				<path class="st8" d="M812.2,2443c-73-1.8-271.2,14.5-278.9,87.2c-8,74.7,186.6,142.4,261.5,148.2c14,1.1,29.4,1.7,46,2
					c15.3-4.3,366.7-103.3,681.6-172.1C1271.1,2479.2,961.2,2446.6,812.2,2443z"/>
			</g>
		</g>
	</g>
</g>
</svg>
